<svg xmlns="http://www.w3.org/2000/svg" width="24" height="24" id="remove"><g transform="translate(0 -1028.362)"><circle cx="37.045" cy="28.409" r="12.5" fill="#ef4c45" fill-rule="evenodd" transform="matrix(.96 0 0 .96 -23.563 1013.09)"></circle><path style="line-height:normal;text-indent:0;text-align:start;text-decoration-line:none;text-transform:none;block-progression:tb" fill="#df2209" d="M14.521 23.717a12 12 0 0 0 .69-.154 12 12 0 0 0 1.137-.38 12 12 0 0 0 1.095-.488 12 12 0 0 0 1.041-.597 12 12 0 0 0 .975-.698 12 12 0 0 0 .902-.793 12 12 0 0 0 .817-.877 12 12 0 0 0 .726-.955 12 12 0 0 0 .627-1.021 12 12 0 0 0 .522-1.08 12 12 0 0 0 .412-1.127 12 12 0 0 0 .26-1.018l-7.127-7.127A6.479 6.479 0 0 0 12 5.5 6.492 6.492 0 0 0 5.5 12c0 1.798.727 3.422 1.902 4.598l7.12 7.119z" color="#000" font-family="sans-serif" font-weight="400" transform="translate(0 1028.362)"></path><path style="line-height:normal;text-indent:0;text-align:start;text-decoration-line:none;text-transform:none;block-progression:tb" fill="#fff" d="M8.5 2C12.096 2 15 4.904 15 8.5S12.096 15 8.5 15A6.492 6.492 0 0 1 2 8.5C2 4.904 4.904 2 8.5 2ZM4.95 8a.52.52 0 0 0-.475.525A.52.52 0 0 0 5 9h7a.52.52 0 0 0 .507-.5A.52.52 0 0 0 12 8H5a.5.5 0 0 0-.05 0Z" color="#000" font-family="sans-serif" font-weight="400" overflow="visible" transform="translate(3.5 1031.862)"></path></g></svg>